<?xml version="1.0" standalone="no"?>
<!DOCTYPE svg PUBLIC "-//W3C//DTD SVG 20010904//EN"
 "http://www.w3.org/TR/2001/REC-SVG-20010904/DTD/svg10.dtd">
<svg version="1.0" xmlns="http://www.w3.org/2000/svg"
 width="1000.000000pt" height="1000.000000pt" viewBox="0 0 1000.000000 1000.000000"
 preserveAspectRatio="xMidYMid meet">
<metadata>
Created by potrace 1.11, written by Peter Selinger 2001-2013
</metadata>
<g transform="translate(0.000000,1000.000000) scale(0.100000,-0.100000)"
fill="#000000" stroke="none">
<path d="M960 7911 c0 -131 3 -181 13 -188 6 -5 122 -8 259 -8 136 1 245 -2
242 -7 -3 -4 0 -8 6 -8 6 0 8 -5 5 -11 -11 -16 -12 -69 -2 -69 4 0 5 -5 2 -11
-9 -14 -13 -69 -5 -69 3 0 6 -9 6 -20 0 -11 -3 -20 -6 -20 -8 0 -3 -97 5 -110
3 -5 3 -10 -2 -10 -4 0 -8 -18 -8 -40 0 -22 4 -40 9 -40 5 0 4 -6 -3 -13 -8
-10 -7 -17 1 -25 7 -7 8 -12 2 -12 -10 0 -11 -51 0 -68 4 -7 3 -12 -2 -12 -6
0 -7 -14 -2 -35 4 -19 5 -35 1 -35 -9 0 -5 -85 3 -99 4 -5 2 -12 -4 -16 -6 -4
-7 -12 -1 -22 4 -9 5 -31 0 -51 -4 -19 -4 -45 1 -57 5 -13 6 -26 2 -29 -9 -10
-9 -76 1 -76 4 0 5 -4 2 -10 -10 -16 -12 -80 -3 -80 5 0 6 -5 3 -11 -9 -14
-13 -69 -5 -69 3 0 6 -9 6 -20 0 -11 -3 -20 -6 -20 -8 0 -3 -97 5 -110 3 -5 3
-10 -2 -10 -4 0 -8 -18 -8 -40 0 -22 4 -40 9 -40 5 0 4 -6 -3 -13 -8 -10 -7
-17 1 -25 7 -7 8 -12 3 -12 -11 0 -12 -51 -1 -68 4 -7 4 -12 -1 -12 -4 0 -8
-25 -8 -55 0 -30 2 -55 5 -55 3 0 6 -9 6 -20 0 -11 -3 -20 -6 -20 -8 0 -3 -97
5 -110 3 -5 3 -10 -2 -10 -4 0 -8 -18 -8 -40 0 -22 4 -40 8 -40 5 0 5 -5 2
-11 -9 -14 -13 -69 -5 -69 3 0 6 -9 6 -20 0 -11 -3 -20 -6 -20 -8 0 -3 -97 5
-110 3 -5 3 -10 -2 -10 -4 0 -8 -18 -8 -40 0 -22 4 -40 9 -40 5 0 3 -6 -3 -13
-6 -8 -8 -17 -4 -21 10 -9 10 -96 0 -96 -4 0 -5 -5 -1 -12 10 -16 11 -308 1
-308 -4 0 -4 -8 0 -17 5 -10 7 -103 6 -208 -3 -236 -3 -208 0 -290 2 -38 -1
-78 -5 -87 -5 -10 -5 -18 -1 -18 4 0 8 -41 8 -90 0 -50 -4 -90 -8 -90 -4 0 -4
-8 0 -17 5 -10 7 -139 6 -288 -2 -148 -3 -277 -3 -285 0 -8 1 -78 1 -155 0
-77 0 -149 0 -160 -1 -11 0 -51 2 -90 1 -38 -1 -78 -5 -87 -5 -10 -5 -18 -1
-18 4 0 8 -41 8 -90 0 -50 -4 -90 -8 -90 -4 0 -4 -8 0 -17 7 -14 8 -308 3
-573 0 -8 0 -31 1 -50 4 -84 28 -76 -238 -76 -131 1 -248 -1 -261 -3 l-22 -3
2 -182 3 -181 1148 -3 c631 -1 1147 1 1148 5 1 5 2 86 3 182 1 155 -1 174 -16
180 -9 3 -125 6 -258 5 -224 -1 -242 1 -251 18 -5 10 -6 18 -1 18 10 0 8 92
-2 109 -4 6 -3 11 2 11 10 0 8 92 -2 109 -4 6 -3 11 2 11 13 0 10 63 -3 72 -7
5 -6 8 1 8 11 0 11 90 0 109 -4 6 -3 11 2 11 10 0 8 92 -2 109 -4 6 -3 11 2
11 13 0 10 63 -3 72 -7 5 -6 8 1 8 11 0 11 90 0 109 -4 6 -3 11 2 11 10 0 8
92 -2 109 -4 6 -3 11 2 11 13 0 10 63 -3 72 -7 5 -6 8 1 8 11 0 11 90 0 109
-4 6 -3 11 2 11 10 0 8 92 -2 109 -4 6 -3 11 2 11 13 0 10 63 -3 72 -7 5 -6 8
1 8 11 0 11 90 0 109 -4 6 -3 11 2 11 10 0 8 92 -2 109 -4 6 -3 11 2 11 13 0
10 63 -3 72 -7 5 -6 8 1 8 11 0 11 90 0 109 -4 6 -3 11 2 11 10 0 8 92 -2 109
-4 6 -3 11 2 11 13 0 10 63 -3 72 -7 5 -6 8 1 8 11 0 11 90 0 109 -4 6 -3 11
2 11 10 0 8 92 -2 109 -4 6 -3 11 2 11 13 0 10 63 -3 72 -7 5 -6 8 1 8 11 0
11 90 0 109 -4 6 -2 11 3 11 6 0 10 10 8 22 l-2 23 560 1 c308 1 563 2 566 3
4 1 6 11 5 24 l-1 22 -580 1 c-319 0 -585 -1 -591 -3 -8 -3 -12 -31 -11 -77 0
-40 -3 -78 -7 -84 -4 -7 -4 -12 1 -12 10 0 8 -133 -1 -149 -4 -6 -4 -11 1 -11
10 0 8 -133 -1 -149 -4 -6 -4 -11 1 -11 10 0 8 -133 -1 -149 -4 -6 -4 -11 1
-11 10 0 8 -133 -1 -149 -4 -6 -4 -11 1 -11 10 0 8 -133 -1 -149 -4 -6 -4 -11
1 -11 10 0 8 -133 -1 -149 -4 -6 -4 -11 1 -11 10 0 8 -133 -1 -149 -4 -6 -4
-11 1 -11 10 0 8 -133 -1 -149 -4 -6 -4 -11 1 -11 10 0 8 -133 -1 -149 -4 -6
-4 -11 1 -11 10 0 8 -133 -1 -149 -4 -6 -4 -11 1 -11 10 0 8 -133 -1 -149 -4
-6 -4 -11 1 -11 10 0 8 -133 -1 -149 -4 -6 -4 -11 1 -11 10 0 8 -133 -1 -149
-4 -6 -4 -11 1 -11 10 0 8 -133 -1 -149 -4 -6 -3 -11 2 -11 5 0 7 -23 4 -50
-2 -28 1 -56 6 -63 8 -10 64 -13 227 -12 118 0 215 -4 215 -8 0 -5 6 -5 12 -1
7 5 24 8 37 8 l25 0 1 -124 c1 -69 -1 -131 -3 -137 -3 -10 -233 -13 -1103 -13
l-1100 0 3 137 3 137 257 0 256 0 4 31 c2 25 2 5449 -1 5481 -1 15 -60 24 -68
11 -3 -5 -10 -3 -15 4 -7 11 -11 11 -15 1 -2 -6 -9 -10 -14 -7 -13 9 -284 9
-297 1 -7 -4 -12 -2 -12 5 0 9 -3 9 -14 0 -8 -7 -17 -8 -20 -3 -3 5 -19 7 -36
4 l-30 -4 0 136 0 136 1102 -2 1102 -3 0 -130 0 -130 -70 -1 c-39 0 -75 -4
-81 -7 -6 -4 -14 -1 -17 5 -5 11 -7 11 -12 0 -3 -6 -10 -9 -16 -6 -5 4 -78 6
-160 6 -115 0 -153 -3 -159 -14 -5 -7 -8 -38 -7 -68 1 -30 -1 -61 -5 -68 -5
-6 -5 -12 0 -12 12 0 10 -94 -2 -102 -6 -5 -5 -8 4 -8 10 0 11 -3 2 -13 -6 -8
-8 -17 -4 -20 10 -11 9 -117 -2 -117 -5 0 -4 -4 4 -9 9 -6 10 -11 2 -15 -6 -4
-8 -13 -4 -19 4 -6 8 -293 10 -637 1 -344 3 -674 4 -735 0 -60 0 -114 -1 -120
-1 -5 -1 -14 0 -20 2 -14 2 -208 0 -220 -1 -5 -2 -12 -1 -15 1 -3 3 -114 4
-247 2 -133 6 -245 9 -249 5 -4 861 -8 1120 -5 44 1 48 3 46 26 l-2 24 -511 0
c-280 1 -533 1 -560 1 l-50 0 -4 818 c-2 449 -4 1006 -5 1237 -1 232 -6 426
-10 433 -4 7 -3 12 1 12 5 0 8 24 7 53 l-1 53 249 0 c210 -1 251 1 262 14 9
11 12 64 12 185 l-1 170 -1153 3 -1152 2 0 -179z"/>
<path d="M6736 8082 c-3 -4 -3 -17 -2 -28 2 -10 -1 -25 -7 -31 -6 -8 -6 -13 0
-13 11 0 11 -29 -1 -48 -4 -6 -3 -12 2 -12 10 0 9 -30 -2 -48 -4 -6 -3 -12 2
-12 10 0 9 -30 -2 -48 -4 -6 -3 -12 1 -12 5 0 8 -23 8 -52 0 -47 2 -52 25 -57
14 -4 130 -6 258 -6 153 1 232 -3 233 -10 1 -5 2 -592 3 -1303 l1 -1292 -75 0
c-41 0 -683 0 -1426 0 l-1351 -1 0 -24 c0 -14 5 -25 11 -26 6 0 656 0 1445 -1
965 0 1435 3 1440 10 3 5 6 611 6 1346 0 985 -3 1338 -12 1347 -13 13 -82 18
-90 7 -2 -5 -8 -6 -14 -3 -14 9 -93 10 -107 2 -7 -5 -12 -3 -12 4 0 8 -4 8
-15 -1 -12 -10 -15 -10 -15 0 0 10 -3 10 -14 1 -11 -9 -15 -9 -20 1 -4 9 -8
10 -11 2 -3 -7 -14 -10 -24 -7 -9 2 -55 5 -102 6 l-84 2 -1 41 c0 22 -3 48 -7
57 -3 9 -3 17 1 17 4 0 7 23 7 50 0 28 -4 50 -9 50 -6 0 -5 5 1 11 6 6 9 18 6
25 -4 11 172 14 1099 14 l1104 0 0 -134 1 -135 -87 1 c-48 1 -92 -2 -98 -6 -7
-4 -12 -2 -12 5 0 8 -3 9 -13 0 -8 -6 -16 -9 -19 -6 -8 8 -122 10 -135 2 -6
-4 -14 -1 -17 5 -4 9 -8 9 -11 2 -4 -7 -22 -8 -51 -4 -30 5 -50 3 -62 -6 -16
-12 -17 -168 -17 -2763 0 -1837 3 -2752 10 -2754 5 -2 60 -3 120 -2 61 0 120
-2 131 -6 12 -4 25 -5 28 -2 11 11 217 9 224 -2 4 -5 7 -67 8 -137 l1 -128
-1103 0 -1103 0 3 50 c2 28 -1 50 -6 50 -5 0 -6 5 -2 12 4 6 8 46 8 87 l1 75
160 1 c88 1 170 -3 182 -7 12 -4 24 -4 27 0 2 4 34 7 70 6 53 -1 68 2 74 15 6
12 9 2407 3 2507 l-1 20 -1445 0 c-795 0 -1445 -2 -1446 -5 0 -4 -2 -14 -4
-23 -2 -9 2 -18 8 -20 7 -2 648 -4 1424 -3 957 0 1414 -3 1416 -10 2 -5 3
-554 2 -1220 l0 -1210 -250 0 c-138 -1 -255 -4 -262 -8 -8 -5 -12 -35 -11 -90
1 -46 -1 -88 -6 -95 -4 -7 -3 -12 2 -12 10 0 9 -30 -2 -48 -4 -6 -3 -12 2 -12
5 0 8 -15 5 -32 -2 -18 -1 -43 2 -55 l5 -23 1145 0 1145 0 4 23 c8 36 2 335
-7 343 -4 4 -121 8 -260 8 l-252 1 0 2708 c0 1489 2 2708 5 2708 3 1 115 3
250 3 135 1 250 5 256 9 7 4 11 66 10 184 l-1 178 -1147 3 c-631 1 -1149 -2
-1152 -6z"/>
<path d="M1096 7958 c-11 -6 -14 -44 -7 -103 1 -6 93 -10 256 -10 140 1 255
-2 256 -5 7 -38 3 -170 -5 -170 -7 0 -7 -3 -1 -8 14 -10 16 -114 2 -105 -6 4
-7 1 -1 -8 13 -22 14 -119 0 -119 -7 0 -7 -3 -1 -8 14 -10 16 -114 2 -105 -6
4 -7 1 -1 -8 13 -20 12 -599 -1 -599 -6 0 -6 -3 1 -8 12 -8 13 -81 2 -98 -4
-6 -4 -14 0 -18 11 -12 9 -110 -3 -118 -7 -5 -7 -8 1 -8 12 0 12 -79 0 -99 -6
-9 -5 -12 1 -8 11 7 12 -212 1 -229 -4 -6 -4 -14 -1 -18 12 -11 11 -126 0
-119 -6 4 -7 1 -1 -8 11 -18 13 -168 2 -175 -5 -3 -5 -11 -1 -17 12 -18 10
-111 -2 -119 -7 -5 -7 -8 1 -8 12 0 13 -158 2 -176 -4 -6 -4 -14 -1 -18 12
-11 11 -126 0 -119 -6 4 -7 1 -1 -8 11 -18 13 -168 2 -175 -5 -3 -5 -11 -1
-17 12 -19 11 -117 -1 -117 -8 0 -8 -3 -1 -8 15 -10 15 -544 0 -554 -6 -5 -6
-8 0 -8 6 0 10 -25 11 -55 1 -34 -3 -52 -9 -48 -6 4 -7 1 -1 -8 13 -22 14
-119 0 -119 -7 0 -7 -3 -1 -8 14 -10 16 -114 2 -105 -6 4 -7 1 -1 -8 13 -20
12 -919 -1 -919 -7 0 -7 -3 0 -8 14 -10 16 -114 2 -105 -6 4 -7 1 -1 -8 13
-22 14 -119 0 -119 -7 0 -7 -3 -1 -8 14 -10 16 -114 2 -105 -6 4 -7 1 -1 -8 5
-8 9 -159 9 -336 l0 -323 -45 -1 c-25 0 -142 0 -261 0 l-215 0 2 -52 c1 -29 2
-56 3 -62 1 -7 349 -10 1023 -9 l1023 1 0 59 0 59 -235 2 c-129 1 -245 2 -256
2 l-22 1 0 1344 c0 1009 3 1345 11 1348 7 2 281 4 611 3 673 -1 615 -8 608 77
l-4 43 -611 0 -612 0 0 1430 0 1430 250 0 c238 0 282 5 268 29 -3 5 -6 27 -7
50 l-1 41 -1013 0 c-557 0 -1019 -3 -1026 -7z"/>
<path d="M6866 7958 c-12 -7 -15 -85 -4 -104 4 -5 112 -9 257 -8 138 0 252 -2
252 -5 4 -14 6 -2828 3 -2841 -3 -14 -166 -15 -1466 -15 -805 1 -1467 0 -1473
-2 -8 -3 -12 -83 -6 -113 1 -3 664 -6 1474 -6 l1472 0 0 -1347 1 -1347 -21 -1
c-11 0 -127 0 -257 -1 -171 0 -238 -3 -239 -12 -7 -66 -3 -106 11 -107 8 0
469 -1 1024 -2 665 -1 1010 1 1012 8 2 6 6 33 7 62 l4 52 -264 -2 -263 -2 2
2840 3 2840 158 1 c87 0 160 -3 163 -8 3 -5 11 -5 17 -1 7 5 46 8 87 9 42 0
80 3 85 6 8 5 11 75 6 108 -1 8 -2031 6 -2045 -2z"/>
<path d="M3601 6601 c-7 -5 -28 -6 -48 -4 -22 2 -32 0 -28 -7 3 -5 2 -10 -2
-10 -11 0 -10 -56 1 -67 4 -4 93 -8 197 -9 104 0 191 -3 194 -6 3 -3 6 -14 6
-24 -1 -21 0 -76 3 -179 1 -38 -2 -78 -7 -87 -4 -10 -4 -18 0 -18 9 0 9 -87 1
-96 -4 -3 -3 -18 1 -32 9 -34 7 -165 -3 -180 -4 -7 -4 -12 1 -12 10 0 9 -212
-1 -228 -4 -7 -4 -12 1 -12 10 0 9 -212 -1 -228 -4 -7 -4 -12 1 -12 10 0 9
-212 -1 -228 -4 -7 -3 -12 3 -12 7 0 7 -8 1 -25 -5 -13 -6 -26 -2 -29 9 -5 7
-119 -2 -135 -4 -6 -3 -11 1 -11 5 0 8 -12 7 -27 -4 -48 -5 -85 -2 -176 2 -48
0 -87 -3 -87 -4 0 -4 -15 0 -32 8 -42 6 -171 -3 -186 -4 -7 -4 -12 1 -12 10 0
9 -212 -1 -228 -4 -7 -4 -12 1 -12 10 0 9 -212 -1 -228 -4 -7 -4 -12 1 -12 10
0 9 -212 -1 -228 -4 -7 -4 -12 1 -12 10 0 9 -212 -1 -228 -4 -7 -4 -12 1 -12
10 0 9 -212 -1 -228 -4 -7 -3 -12 3 -12 5 0 6 -11 2 -27 l-7 -28 -191 0 c-106
0 -195 -4 -199 -8 -11 -11 -12 -47 -1 -47 5 0 4 -6 -2 -14 -16 -19 -5 -24 47
-22 23 1 42 -2 42 -6 0 -4 7 -5 15 -2 24 10 145 10 145 1 0 -4 5 -5 11 -2 13
9 397 10 405 2 3 -3 12 -3 20 0 23 9 524 9 524 0 0 -4 7 -4 17 1 11 7 17 24
18 53 l1 44 -201 0 -200 0 -1 1660 c-1 913 2 1662 7 1665 4 3 93 4 198 4 105
-1 191 1 192 5 1 3 2 25 3 48 2 39 0 41 -24 39 -14 -1 -35 1 -46 5 -12 4 -25
5 -28 2 -5 -6 -243 -8 -256 -3 -3 1 -9 1 -15 0 -12 -3 -286 -2 -300 0 -5 2
-14 1 -20 0 -24 -5 -442 -3 -451 3 -5 3 -16 2 -23 -2z"/>
<path d="M5626 6603 c-3 -3 -92 -7 -198 -7 l-192 -1 1 -22 c0 -13 1 -34 2 -46
l1 -24 183 0 c100 -1 191 -1 202 -2 18 -1 21 -7 20 -58 0 -32 -4 -63 -8 -69
-3 -6 -3 -14 0 -18 11 -11 10 -459 0 -473 -6 -8 -6 -13 0 -13 10 0 11 -119 0
-136 -3 -6 -3 -14 0 -18 11 -11 10 -459 0 -473 -6 -8 -6 -13 1 -13 6 0 9 -17
7 -40 l-3 -39 222 0 222 1 0 339 c0 194 -4 339 -9 339 -5 0 -3 8 4 17 12 14
12 16 0 8 -10 -6 -12 -4 -7 4 12 19 14 61 4 67 -4 3 -6 10 -2 15 10 17 12 59
2 65 -4 3 -6 10 -2 15 10 17 12 59 2 65 -4 3 -6 10 -2 15 10 17 12 59 2 65 -4
3 -6 10 -2 15 10 17 12 59 2 65 -4 3 -6 10 -2 15 10 17 12 59 2 65 -4 3 -6 10
-2 15 10 17 12 59 3 65 -5 3 -5 13 -1 22 5 9 8 29 7 44 -1 17 5 28 15 30 8 2
99 3 203 2 l187 -1 0 47 0 48 -76 -2 c-42 0 -78 2 -81 7 -2 4 -9 4 -15 1 -9
-6 -276 -9 -303 -4 -5 2 -14 1 -20 0 -23 -5 -343 -2 -352 3 -6 4 -13 4 -17 0z"/>
<path d="M5647 4685 c-2 -5 -3 -68 -2 -140 1 -71 -3 -136 -8 -142 -5 -7 -6
-13 -1 -13 11 0 11 -250 1 -267 -5 -7 -4 -13 0 -13 11 0 11 -120 0 -136 -3 -6
-3 -14 0 -18 11 -11 10 -299 0 -313 -6 -8 -6 -13 0 -13 11 0 11 -119 0 -137
-4 -6 -4 -14 0 -16 5 -3 8 -72 8 -153 l-1 -149 -198 0 c-189 0 -199 -1 -205
-20 -4 -11 -6 -26 -5 -32 1 -7 2 -20 3 -28 1 -11 21 -14 109 -14 59 1 112 0
117 -1 6 -1 15 -1 20 0 12 2 606 2 620 0 6 -2 15 -1 20 0 6 1 90 2 188 2 l178
0 -3 47 -3 46 -200 0 c-185 0 -200 1 -197 18 2 9 -2 17 -8 17 -6 0 -8 5 -3 13
10 16 10 97 0 97 -5 0 -5 5 -1 12 11 17 11 78 1 78 -4 0 -5 6 -1 12 11 18 12
48 2 48 -5 0 -6 6 -2 12 11 18 12 48 2 48 -5 0 -6 6 -2 12 11 18 12 48 2 48
-5 0 -6 6 -2 12 11 18 12 48 2 48 -5 0 -6 6 -2 12 11 18 12 48 2 48 -5 0 -6 6
-2 12 11 18 12 48 2 48 -5 0 -6 6 -2 12 11 18 12 48 2 48 -5 0 -4 8 1 18 5 10
6 23 2 30 -7 11 -6 34 2 95 3 15 0 30 -5 33 -4 3 -6 10 -2 15 10 17 12 59 2
65 -4 3 -6 10 -2 15 10 17 12 59 3 65 -5 3 -5 13 -1 22 5 9 7 31 5 47 -3 29
-3 38 -3 70 0 8 0 22 0 30 0 8 0 22 0 30 0 8 0 22 0 30 0 8 0 22 0 30 0 8 0
22 0 30 0 8 0 22 0 30 0 8 0 22 0 30 0 8 0 22 0 30 0 8 0 21 0 28 0 6 1 23 3
37 2 14 -1 31 -6 38 -6 7 -6 12 0 12 13 0 12 30 -1 31 -6 0 -19 2 -28 4 -10 2
-18 -2 -18 -8 0 -8 -3 -8 -8 -2 -4 6 -79 10 -189 10 -113 0 -184 -4 -186 -10z"/>
</g>
</svg>
