<?xml version="1.0" encoding="utf-8"?>
<!-- Generator: Adobe Illustrator 19.2.1, SVG Export Plug-In . SVG Version: 6.00 Build 0)  -->
<svg version="1.1" id="Layer_1" xmlns="http://www.w3.org/2000/svg" xmlns:xlink="http://www.w3.org/1999/xlink" x="0px" y="0px"
	 viewBox="0 0 112.2 15.9" style="enable-background:new 0 0 112.2 15.9;" xml:space="preserve">
<style type="text/css">
	.st0{fill:#D55956;}
</style>
<g>
	<path class="st0" d="M8.2,9.9l-0.6,6H4.9l1-6l-4.8,3.2L0,10.7L4.9,8L0.7,5.1l1.6-2.4l4,3.2l0.6-6h2.7l-1,6l4.7-3.2l1.1,2.4L9.5,7.9
		l4.3,2.8L12.2,13L8.2,9.9z"/>
	<path class="st0" d="M32.6,9.9l-0.6,6h-2.7l1-6l-4.8,3.2l-1.1-2.4L29.3,8l-4.2-2.8l1.6-2.4l4,3.2l0.6-6H34l-1,6l4.7-3.2l1.1,2.4
		l-4.9,2.8l4.3,2.8L36.6,13L32.6,9.9z"/>
	<path class="st0" d="M57.1,9.9l-0.6,6h-2.7l1-6L50,13.1l-1.1-2.4L53.8,8l-4.2-2.8l1.6-2.4l4,3.2l0.6-6h2.7l-1,6l4.7-3.2l1.1,2.4
		l-4.9,2.8l4.3,2.8L61.1,13L57.1,9.9z"/>
	<path class="st0" d="M81.5,9.9l-0.6,6h-2.7l1-6l-4.8,3.2l-1.1-2.4L78.2,8L74,5.1l1.6-2.4l4,3.2l0.6-6h2.7l-1,6l4.7-3.2l1.1,2.4
		l-4.9,2.8l4.3,2.8L85.5,13L81.5,9.9z"/>
	<path class="st0" d="M106,9.9l-0.6,6h-2.7l1-6l-4.8,3.2l-1.1-2.4l4.9-2.7l-4.2-2.8l1.6-2.4l4,3.2l0.6-6h2.7l-1,6l4.7-3.2l1.1,2.4
		l-4.9,2.8l4.3,2.8L110,13L106,9.9z"/>
</g>
</svg>
